<svg xmlns="http://www.w3.org/2000/svg" width="10.046" height="16.073" viewBox="0 0 10.046 16.073">
  <path id="Icon_awesome-mobile-alt" data-name="Icon awesome-mobile-alt" d="M8.539,0H1.507A1.507,1.507,0,0,0,0,1.507V14.566a1.507,1.507,0,0,0,1.507,1.507H8.539a1.507,1.507,0,0,0,1.507-1.507V1.507A1.507,1.507,0,0,0,8.539,0ZM5.023,15.068a1,1,0,1,1,1-1A1,1,0,0,1,5.023,15.068Zm3.516-3.39a.378.378,0,0,1-.377.377H1.884a.378.378,0,0,1-.377-.377V1.884a.378.378,0,0,1,.377-.377H8.162a.378.378,0,0,1,.377.377Z" fill="#fff"/>
</svg>
