<svg xmlns="http://www.w3.org/2000/svg" width="1329.608" height="516" viewBox="0 0 1329.608 516">
  <defs>
    <style>
      .cls-1, .cls-6 {
        fill: none;
      }

      .cls-1, .cls-4 {
        stroke: #252525;
      }

      .cls-1 {
        stroke-width: 5px;
      }

      .cls-2 {
        font-size: 40px;
        font-family: Raleway;
        font-weight: 700;
      }

      .cls-3 {
        stroke: #707070;
      }

      .cls-4 {
        fill: #faf8f5;
      }

      .cls-5 {
        stroke: none;
      }
    </style>
  </defs>
  <g id="Group_11" data-name="Group 11" transform="translate(-69 -7546.954)">
    <g id="Rectangle_23" data-name="Rectangle 23" class="cls-1" transform="translate(69 7546.954)">
      <rect class="cls-5" width="1329.608" height="516"/>
      <rect class="cls-6" x="2.5" y="2.5" width="1324.608" height="511"/>
    </g>
    <text id="Adobe_Photoshop" data-name="Adobe Photoshop" class="cls-2" transform="translate(111.171 7641.953)"><tspan x="0" y="0">Adobe Photoshop</tspan></text>
    <text id="Adobe_Illustrator" data-name="Adobe Illustrator" class="cls-2" transform="translate(111.171 7728.454)"><tspan x="0" y="0">Adobe Illustrator</tspan></text>
    <text id="After_Effects" data-name="After Effects" class="cls-2" transform="translate(111.171 7814.954)"><tspan x="0" y="0">After Effects</tspan></text>
    <text id="Cinema_4D" data-name="Cinema 4D" class="cls-2" transform="translate(111.171 7987.955)"><tspan x="0" y="0">Cinema 4D</tspan></text>
    <text id="Adobe_XD" data-name="Adobe XD" class="cls-2" transform="translate(111.171 7901.455)"><tspan x="0" y="0">Adobe XD</tspan></text>
    <g id="Rectangle_24" data-name="Rectangle 24" class="cls-3" transform="translate(753.031 7623.953)">
      <rect class="cls-5" width="74" height="8"/>
      <rect class="cls-6" x="0.5" y="0.5" width="73" height="7"/>
    </g>
    <g id="Rectangle_25" data-name="Rectangle 25" class="cls-3" transform="translate(881.503 7623.953)">
      <rect class="cls-5" width="74" height="8"/>
      <rect class="cls-6" x="0.5" y="0.5" width="73" height="7"/>
    </g>
    <g id="Rectangle_26" data-name="Rectangle 26" class="cls-3" transform="translate(1009.975 7623.953)">
      <rect class="cls-5" width="74" height="8"/>
      <rect class="cls-6" x="0.5" y="0.5" width="73" height="7"/>
    </g>
    <g id="Rectangle_27" data-name="Rectangle 27" class="cls-4" transform="translate(1138.446 7623.953)">
      <rect class="cls-5" width="74" height="8"/>
      <rect class="cls-6" x="0.5" y="0.5" width="73" height="7"/>
    </g>
    <g id="Rectangle_28" data-name="Rectangle 28" class="cls-4" transform="translate(1266.918 7623.953)">
      <rect class="cls-5" width="74" height="8"/>
      <rect class="cls-6" x="0.5" y="0.5" width="73" height="7"/>
    </g>
    <g id="Rectangle_200" data-name="Rectangle 200" class="cls-3" transform="translate(753.031 7710.454)">
      <rect class="cls-5" width="74" height="8"/>
      <rect class="cls-6" x="0.5" y="0.5" width="73" height="7"/>
    </g>
    <g id="Rectangle_201" data-name="Rectangle 201" class="cls-3" transform="translate(881.503 7710.454)">
      <rect class="cls-5" width="74" height="8"/>
      <rect class="cls-6" x="0.5" y="0.5" width="73" height="7"/>
    </g>
    <g id="Rectangle_202" data-name="Rectangle 202" class="cls-3" transform="translate(1009.975 7710.454)">
      <rect class="cls-5" width="74" height="8"/>
      <rect class="cls-6" x="0.5" y="0.5" width="73" height="7"/>
    </g>
    <g id="Rectangle_203" data-name="Rectangle 203" class="cls-4" transform="translate(1138.446 7710.454)">
      <rect class="cls-5" width="74" height="8"/>
      <rect class="cls-6" x="0.5" y="0.5" width="73" height="7"/>
    </g>
    <g id="Rectangle_204" data-name="Rectangle 204" class="cls-4" transform="translate(1266.918 7710.454)">
      <rect class="cls-5" width="74" height="8"/>
      <rect class="cls-6" x="0.5" y="0.5" width="73" height="7"/>
    </g>
    <g id="Rectangle_205" data-name="Rectangle 205" class="cls-3" transform="translate(753.031 7796.954)">
      <rect class="cls-5" width="74" height="8"/>
      <rect class="cls-6" x="0.5" y="0.5" width="73" height="7"/>
    </g>
    <g id="Rectangle_206" data-name="Rectangle 206" class="cls-3" transform="translate(881.503 7796.954)">
      <rect class="cls-5" width="74" height="8"/>
      <rect class="cls-6" x="0.5" y="0.5" width="73" height="7"/>
    </g>
    <g id="Rectangle_207" data-name="Rectangle 207" class="cls-3" transform="translate(1009.975 7796.954)">
      <rect class="cls-5" width="74" height="8"/>
      <rect class="cls-6" x="0.5" y="0.5" width="73" height="7"/>
    </g>
    <g id="Rectangle_208" data-name="Rectangle 208" class="cls-4" transform="translate(1138.446 7796.954)">
      <rect class="cls-5" width="74" height="8"/>
      <rect class="cls-6" x="0.5" y="0.5" width="73" height="7"/>
    </g>
    <g id="Rectangle_209" data-name="Rectangle 209" class="cls-4" transform="translate(1266.918 7796.954)">
      <rect class="cls-5" width="74" height="8"/>
      <rect class="cls-6" x="0.5" y="0.5" width="73" height="7"/>
    </g>
    <g id="Rectangle_210" data-name="Rectangle 210" class="cls-3" transform="translate(753.031 7883.455)">
      <rect class="cls-5" width="74" height="8"/>
      <rect class="cls-6" x="0.5" y="0.5" width="73" height="7"/>
    </g>
    <g id="Rectangle_211" data-name="Rectangle 211" class="cls-3" transform="translate(881.503 7883.455)">
      <rect class="cls-5" width="74" height="8"/>
      <rect class="cls-6" x="0.5" y="0.5" width="73" height="7"/>
    </g>
    <g id="Rectangle_212" data-name="Rectangle 212" class="cls-3" transform="translate(1009.975 7883.455)">
      <rect class="cls-5" width="74" height="8"/>
      <rect class="cls-6" x="0.5" y="0.5" width="73" height="7"/>
    </g>
    <g id="Rectangle_214" data-name="Rectangle 214" class="cls-4" transform="translate(1266.918 7883.455)">
      <rect class="cls-5" width="74" height="8"/>
      <rect class="cls-6" x="0.5" y="0.5" width="73" height="7"/>
    </g>
    <g id="Rectangle_215" data-name="Rectangle 215" class="cls-3" transform="translate(753.031 7969.955)">
      <rect class="cls-5" width="74" height="8"/>
      <rect class="cls-6" x="0.5" y="0.5" width="73" height="7"/>
    </g>
    <g id="Rectangle_216" data-name="Rectangle 216" class="cls-3" transform="translate(881.503 7969.955)">
      <rect class="cls-5" width="74" height="8"/>
      <rect class="cls-6" x="0.5" y="0.5" width="73" height="7"/>
    </g>
    <g id="Rectangle_218" data-name="Rectangle 218" class="cls-4" transform="translate(1138.446 7969.955)">
      <rect class="cls-5" width="74" height="8"/>
      <rect class="cls-6" x="0.5" y="0.5" width="73" height="7"/>
    </g>
    <g id="Rectangle_219" data-name="Rectangle 219" class="cls-4" transform="translate(1266.918 7969.955)">
      <rect class="cls-5" width="74" height="8"/>
      <rect class="cls-6" x="0.5" y="0.5" width="73" height="7"/>
    </g>
    <g id="Rectangle_220" data-name="Rectangle 220" class="cls-4" transform="translate(1009.975 7969.955)">
      <rect class="cls-5" width="74" height="8"/>
      <rect class="cls-6" x="0.5" y="0.5" width="73" height="7"/>
    </g>
    <g id="Rectangle_221" data-name="Rectangle 221" class="cls-3" transform="translate(1138.446 7883.455)">
      <rect class="cls-5" width="74" height="8"/>
      <rect class="cls-6" x="0.5" y="0.5" width="73" height="7"/>
    </g>
  </g>
</svg>
