<?xml version="1.0" standalone="no"?>
<!DOCTYPE svg PUBLIC "-//W3C//DTD SVG 20010904//EN"
 "http://www.w3.org/TR/2001/REC-SVG-20010904/DTD/svg10.dtd">
<svg version="1.0" xmlns="http://www.w3.org/2000/svg"
 width="1032.000000pt" height="1032.000000pt" viewBox="0 0 1032.000000 1032.000000"
 preserveAspectRatio="xMidYMid meet">
<metadata>
Created by potrace 1.14, written by Peter Selinger 2001-2017
</metadata>
<g transform="translate(0.000000,1032.000000) scale(0.100000,-0.100000)"
fill="#000000" stroke="none">
<path d="M4 8295 c-1 -5 -2 -1308 -1 -2895 l2 -2885 5153 -2 5152 -2 1 42 c1
55 1 5729 0 5742 -1 14 -10302 14 -10307 0z m10152 -2887 l1 -2738 -1246 -1
c-3092 -2 -8746 2 -8750 6 -3 4 -5 5406 -2 5463 1 10 1004 12 4999 10 l4997
-3 1 -2737z"/>
<path d="M5974 7621 c-2 -2 -4 -979 -4 -2170 l0 -2166 1027 1 c1027 2 1243 6
1339 29 12 2 39 7 60 11 69 10 197 44 284 76 219 79 403 208 526 369 157 205
227 433 226 735 -1 195 -33 346 -105 497 -65 136 -134 221 -272 335 -74 60
-314 166 -420 184 -13 2 -1 10 35 21 30 10 74 27 97 38 24 10 45 19 48 19 4 0
43 24 88 54 187 124 305 289 364 514 22 85 26 119 27 267 1 157 -4 231 -18
295 -4 14 -9 39 -12 55 -29 163 -150 376 -287 504 -148 141 -399 261 -617 296
-19 3 -48 8 -63 11 -28 6 -46 8 -197 20 -90 7 -2119 12 -2126 5z m2121 -469
c401 -55 645 -261 693 -583 9 -56 8 -203 -1 -249 -42 -217 -165 -376 -363
-470 -71 -33 -209 -76 -276 -85 -24 -3 -61 -8 -83 -11 -22 -3 -388 -7 -812 -8
l-773 -1 0 710 0 710 768 -1 c497 -1 795 -5 847 -12z m35 -1878 c359 -48 605
-190 718 -414 61 -122 76 -191 76 -340 0 -146 -15 -216 -73 -335 -117 -238
-389 -392 -761 -431 -36 -4 -413 -7 -837 -8 l-773 -1 0 773 0 772 773 -1 c601
-1 795 -4 877 -15z"/>
<path d="M1059 7558 c-1 -2 -2 -965 -3 -2140 l-1 -2138 252 0 253 0 2 1778 3
1777 99 -230 c54 -126 104 -243 111 -260 8 -16 77 -181 155 -365 78 -184 150
-353 160 -375 10 -22 96 -222 190 -445 95 -223 191 -450 215 -505 24 -55 134
-314 244 -575 111 -261 206 -484 212 -495 5 -11 36 -83 69 -160 l59 -140 271
0 271 0 21 50 c11 28 29 68 39 90 17 38 298 698 474 1115 46 107 121 285 168
395 47 110 97 229 112 265 15 36 36 83 46 105 9 22 43 101 74 175 32 74 68
159 81 188 13 29 24 55 24 57 0 3 9 24 19 48 11 23 45 103 76 177 125 296 317
747 330 775 8 17 22 48 32 70 17 39 18 -12 21 -1737 l2 -1778 253 0 252 0 0
2140 0 2140 -365 0 -366 0 -49 -117 c-27 -65 -56 -136 -66 -158 -10 -22 -52
-123 -94 -225 -42 -102 -83 -198 -90 -215 -8 -16 -48 -113 -90 -215 -89 -214
-182 -436 -195 -465 -5 -11 -62 -146 -126 -300 -130 -314 -221 -530 -234 -560
-5 -11 -21 -49 -36 -85 -14 -36 -32 -78 -39 -95 -8 -16 -48 -113 -90 -215 -42
-102 -83 -198 -90 -215 -38 -89 -68 -162 -115 -275 -29 -69 -58 -138 -65 -155
-7 -16 -51 -119 -96 -228 -45 -109 -86 -194 -90 -190 -4 4 -31 64 -59 133 -29
69 -58 139 -65 155 -8 17 -61 143 -118 280 -210 502 -290 691 -308 731 -10 22
-27 63 -37 90 -22 55 -226 542 -247 589 -7 17 -54 129 -105 250 -94 224 -103
246 -137 325 -11 25 -125 296 -253 603 l-234 557 -363 0 c-200 0 -364 -1 -364
-2z"/>
</g>
</svg>
