<svg xmlns="http://www.w3.org/2000/svg" width="84.507" height="47.499" viewBox="0 0 84.507 47.499">
  <g id="favicon" transform="translate(-0.259 830.55)">
    <path id="Path_1" data-name="Path 1" d="M.27-830.464c-.008.041-.016,10.722-.008,23.731l.016,23.649,42.241.016,42.233.016.008-.344c.008-.451.008-46.962,0-47.069S.311-830.579.27-830.464ZM83.489-806.8l.008,22.444-10.214.008c-25.346.016-71.694-.016-71.726-.049s-.041-44.315-.016-44.782c.008-.082,8.23-.1,40.978-.082l40.962.025Z"/>
    <path id="Path_2" data-name="Path 2" d="M597.033-762.409c-.016.016-.033,8.025-.033,17.788v17.755l8.419-.008c8.419-.016,10.189-.049,10.976-.238.1-.016.32-.057.492-.09a14.21,14.21,0,0,0,2.328-.623,9.4,9.4,0,0,0,4.312-3.025,9.258,9.258,0,0,0,1.853-6.025,9.081,9.081,0,0,0-.861-4.074,7.3,7.3,0,0,0-2.23-2.746,11.272,11.272,0,0,0-3.443-1.508c-.107-.016-.008-.082.287-.172a8.482,8.482,0,0,0,.8-.312,4.141,4.141,0,0,1,.393-.156,6.114,6.114,0,0,0,.721-.443,6.907,6.907,0,0,0,2.984-4.213,7.064,7.064,0,0,0,.221-2.189,10.97,10.97,0,0,0-.148-2.418c-.033-.115-.074-.32-.1-.451a8.432,8.432,0,0,0-2.353-4.131,10.357,10.357,0,0,0-5.058-2.426c-.156-.025-.393-.066-.516-.09a13.018,13.018,0,0,0-1.615-.164C613.723-762.426,597.09-762.467,597.033-762.409Zm17.387,3.845c3.287.451,5.287,2.139,5.681,4.779a9.4,9.4,0,0,1-.008,2.041,5.156,5.156,0,0,1-2.976,3.853,10.5,10.5,0,0,1-2.262.7c-.2.025-.5.066-.68.09s-3.181.057-6.656.066l-6.336.008v-11.64l6.3.008C611.55-758.655,613.993-758.622,614.419-758.565Zm.287,15.395c2.943.393,4.959,1.557,5.886,3.394a5.166,5.166,0,0,1,.623,2.787,5.237,5.237,0,0,1-.6,2.746c-.959,1.951-3.189,3.213-6.238,3.533-.3.033-3.385.057-6.861.066l-6.336.008V-743.3l6.336.008C612.444-743.285,614.034-743.261,614.706-743.17Z" transform="translate(-547.825 -62.529)"/>
    <path id="Path_3" data-name="Path 3" d="M105.533-755.984c-.008.016-.016,7.91-.025,17.542l-.008,17.526h4.14l.016-14.575.025-14.567.812,1.885c.443,1.033.853,1.992.91,2.131s.631,1.484,1.271,2.992,1.23,2.894,1.312,3.074.787,1.82,1.557,3.648,1.566,3.689,1.762,4.14,1.1,2.574,2,4.713,1.689,3.968,1.738,4.058.3.68.566,1.312l.484,1.148h4.443l.172-.41c.09-.23.238-.557.32-.738.139-.312,2.443-5.722,3.886-9.14.377-.877.992-2.336,1.377-3.238s.8-1.877.918-2.172.3-.68.377-.861.352-.828.607-1.435.557-1.3.664-1.541.2-.451.2-.467a4.12,4.12,0,0,1,.156-.393c.09-.188.369-.844.623-1.451,1.025-2.426,2.6-6.123,2.705-6.353.066-.139.18-.393.262-.574.139-.32.148.1.172,14.239l.016,14.575h4.14V-756h-5.992l-.4.959c-.221.533-.459,1.115-.541,1.3s-.426,1.008-.771,1.844-.68,1.623-.738,1.762-.393.926-.738,1.762c-.73,1.754-1.492,3.574-1.6,3.812-.041.09-.508,1.2-1.033,2.459-1.066,2.574-1.812,4.345-1.918,4.591-.041.09-.172.4-.3.7s-.262.639-.32.779-.393.926-.738,1.762-.68,1.623-.738,1.762c-.311.73-.557,1.328-.943,2.254-.238.566-.475,1.131-.533,1.271s-.418.975-.787,1.869a8.751,8.751,0,0,1-.738,1.557,11.43,11.43,0,0,1-.484-1.09c-.238-.566-.475-1.139-.533-1.271s-.5-1.172-.967-2.3c-1.721-4.115-2.377-5.664-2.525-5.992-.082-.18-.221-.516-.3-.738-.18-.451-1.853-4.443-2.025-4.828-.057-.139-.443-1.057-.861-2.049-.771-1.836-.844-2.016-1.123-2.664-.09-.2-1.025-2.426-2.074-4.943L111.492-756h-2.976C106.877-756,105.533-755.992,105.533-755.984Z" transform="translate(-96.614 -68.439)"/>
  </g>
</svg>
